<svg xmlns="http://www.w3.org/2000/svg" width="512" height="512" viewBox="50 63.5 512 512"><g fill="#9146FF"><path d="M460.53 319.5c0-21.038-4.208-41.31-12.24-60.435-7.65-18.36-18.742-35.19-32.896-49.342l-10.71-10.71-21.802 21.42 10.71 10.71c11.475 11.475 20.272 24.862 26.393 39.78 6.502 15.3 9.563 31.748 9.563 48.578s-3.442 33.277-9.563 48.578c-6.12 14.917-15.3 28.305-26.393 39.78l-10.71 10.71 21.802 21.42 10.71-10.71c14.153-14.152 25.245-30.982 32.896-49.342 8.032-19.127 12.24-39.399 12.24-60.437zM192.015 368.078c-6.502-15.3-9.563-31.748-9.563-48.578s3.442-33.277 9.563-48.578c6.12-14.917 15.3-28.305 26.393-39.78l10.71-10.71-21.803-21.42-10.71 10.71c-14.152 14.152-25.245 30.982-32.895 49.342-8.032 19.125-12.24 39.397-12.24 60.435s4.208 41.31 12.24 60.435c7.65 18.36 18.743 35.19 32.895 49.342l10.71 10.71 21.803-21.42-10.71-10.71c-11.093-11.473-20.273-24.861-26.393-39.778z"/><path d="M517.522 229.612c-11.475-27.54-27.923-52.02-49.343-73.44l-10.71-10.71-21.802 21.42 10.71 10.71c18.359 18.36 32.512 39.78 42.84 63.495 10.327 24.863 15.683 50.873 15.683 78.03 0 27.157-5.355 53.167-15.683 78.03-9.945 23.715-24.48 45.135-42.84 63.495l-10.71 10.71 21.802 21.42 10.71-10.71c21.038-21.037 37.485-45.9 49.343-73.44C529.38 380.7 535.5 350.482 535.5 319.5s-6.12-61.2-17.978-89.888zM122.783 397.53c-10.328-24.863-15.683-50.873-15.683-78.03s5.355-53.167 15.683-78.03c9.945-23.715 24.48-45.135 42.84-63.495l10.71-10.71-21.803-21.42-10.71 10.71c-21.037 21.038-37.485 45.9-49.342 73.44C82.62 258.3 76.5 288.518 76.5 319.5s6.12 61.2 17.978 89.888c11.475 27.54 27.922 52.02 49.342 73.439l10.71 10.71 21.803-21.42-10.71-10.71c-18.36-18.742-32.895-40.162-42.84-63.877zM305.964 243.354c-42.102-.065-76.287 34.013-76.352 76.116a76.23 76.23 0 0010.296 38.379l-9.94 29.784a6.36 6.36 0 008.046 8.047l29.786-9.939c36.482 21.123 83.18 8.67 104.302-27.813 21.121-36.482 8.67-83.18-27.813-104.302a76.34 76.34 0 00-38.325-10.272zm0 139.938a63.351 63.351 0 01-33.95-9.891 6.368 6.368 0 00-3.402-.985c-.683 0-1.359.114-2.005.334l-20.562 6.854 6.854-20.562a6.355 6.355 0 00-.652-5.407c-18.749-29.707-9.867-68.99 19.84-87.741 29.708-18.75 68.989-9.868 87.741 19.839 18.751 29.708 9.867 68.99-19.839 87.741a63.593 63.593 0 01-34.025 9.818z"/><circle cx="305.964" cy="319.685" r="6.361"/><circle cx="280.522" cy="319.685" r="6.361"/><circle cx="331.407" cy="319.685" r="6.361"/></g></svg>